<?xml version="1.0" encoding="UTF-8" standalone="no"?>
<svg width="4.2332153mm" height="4.2334509mm" viewBox="0 0 49.998558 50.00134" version="1.1" id="svg17"
   xmlns="http://www.w3.org/2000/svg"
   xmlns:svg="http://www.w3.org/2000/svg">
   <g id="g8041" transform="matrix(0.9447299,0,0,0.94556461,1.2398047,1.2395196)">
      <g id="g930">
         <circle style="fill:none;fill-opacity:1;stroke:#000000;stroke-width:6.24803;stroke-miterlimit:4;stroke-dasharray:none;stroke-opacity:1" id="path3260" cx="20.605368" cy="20.605368" r="17.13978" />
         <path style="fill:#000000;fill-opacity:1;stroke:none;stroke-width:3.02737;stroke-miterlimit:4;stroke-dasharray:none;stroke-opacity:1" id="rect3666" width="22.518799" height="6.585341" x="46.493462" y="-3.2927759" transform="matrix(0.70710512,0.70710844,-0.70710508,0.70710848,0,0)" ry="2.8336229" rx="2.8336232" d="m 50.650001,-3.2927759 h 14.665154 c 0.476888,0 1.260478,-0.012719 1.713957,0.128855 0.736043,0.2297887 1.341252,0.7505091 1.682248,1.428782 0.325216,0.6468875 0.3009,1.68702704 0.3009,2.19408107 C 68.438698,2.2773034 67.99704,2.7189692 67.454623,2.9916642 66.807736,3.3168812 65.586347,3.2925651 64.855721,3.2925651 H 50.65 c -0.730626,0 -1.951986,0.024315 -2.598854,-0.3008771 C 47.508723,2.7190027 47.067058,2.2773447 46.794363,1.7349282 46.469146,1.0880406 46.493462,0.0479011 46.493462,-0.45915294 c 0.573562,-1.81836126 1.01522,-2.26002696 1.557637,-2.53272206 0.646887,-0.3252169 1.868276,-0.3009009 2.598902,-0.3009009 z" />
         <rect style="fill:#000000;fill-opacity:1;stroke:none;stroke-width:7.88527;stroke-miterlimit:4;stroke-dasharray:none;stroke-opacity:1" id="rect7607" width="4.5898395" height="21.309355" x="18.310448" y="9.9506903" rx="1.5624985" ry="1.3803631" />
         <rect style="fill:#000000;fill-opacity:1;stroke:none;stroke-width:7.88529;stroke-miterlimit:4;stroke-dasharray:none;stroke-opacity:1" id="rect7607-5" width="4.5898395" height="21.309355" x="18.310448" y="-31.260044" rx="1.5624985" ry="1.3803631" transform="rotate(90)" />
      </g>
   </g>
</svg>