<?xml version="1.0" encoding="UTF-8" standalone="no"?>
<svg width="4.2332153mm" height="4.2334509mm" viewBox="0 0 49.998558 50.00134" version="1.1" id="svg17"
   xmlns="http://www.w3.org/2000/svg"
   xmlns:svg="http://www.w3.org/2000/svg">
   <defs id="defs11" />
   <ellipse style="fill:none;fill-opacity:1;stroke:#a29bfe;stroke-width:5.90531;stroke-miterlimit:4;stroke-dasharray:none;stroke-opacity:1" id="path3260" cx="20.706312" cy="20.723227" rx="16.192463" ry="16.20677" />
   <path style="fill:#a29bfe;fill-opacity:1;stroke:none;stroke-width:2.86131;stroke-miterlimit:4;stroke-dasharray:none;stroke-opacity:1" id="rect3666" width="22.518799" height="6.585341" x="46.493462" y="-3.2927759" ry="2.8336229" rx="2.8336232" d="m 37.274839,32.903352 9.796665,9.805367 c 0.318573,0.318855 0.850526,0.834273 1.058886,1.232135 0.338189,0.645771 0.39463,1.398587 0.169321,2.080087 -0.214884,0.649964 -0.925965,1.329161 -1.264689,1.668186 -1.597861,0.832294 -2.187942,0.832299 -2.732455,0.651958 -0.649389,-0.215074 -1.449061,-1.047973 -1.937137,-1.536482 l -9.489753,-9.498182 c -0.488075,-0.488509 -1.320215,-1.288873 -1.535102,-1.938809 -0.180191,-0.544995 -0.180196,-1.1356 -1.6e-5,-1.680597 0.214884,-0.649965 0.925965,-1.329162 1.264689,-1.668187 1.59786,-0.832293 2.187941,-0.832298 2.732455,-0.651958 0.649388,0.215074 1.449061,1.047973 1.937136,1.536482 z" />
   <rect style="fill:#a29bfe;fill-opacity:1;stroke:none;stroke-width:7.45274;stroke-miterlimit:4;stroke-dasharray:none;stroke-opacity:1" id="rect7607" width="4.3361588" height="20.149372" x="18.538233" y="10.64854" rx="1.4761389" ry="1.3052225" />
   <rect style="fill:#a29bfe;fill-opacity:1;stroke:none;stroke-width:7.45276;stroke-miterlimit:4;stroke-dasharray:none;stroke-opacity:1" id="rect7607-5" width="4.3399897" height="20.131584" x="18.55323" y="-30.772102" rx="1.4774432" ry="1.3040704" transform="rotate(90)" />
</svg>
